# xmcd
#
# Track frame offsets: 
#        150
#        19740
#        32460
#        49854
#        67254
#        85330
#        106821
#        122391
#        134642
#        152187
#
# Disc length: 2261 seconds
#
# Revision: 0
# Processed by: cddbd v1.5.2PL0 Copyright (c) Steve Scherf et al.
# Submitted via: ExactAudioCopy v0.99pb3
#
DISCID=8208d30a
DTITLE=Chris Rea - Whatever Happened to Benny Santini ? 
DYEAR=1978
DGENRE=Rock
TTITLE0=Whatever Happened to Benny Santini?
TTITLE1=The Closer You Get
TTITLE2=Because of You...
TTITLE3=Dancing with Charlie
TTITLE4=Bows and Bangles
TTITLE5=Fool (If You Think It's Over)
TTITLE6=Three Angels
TTITLE7=Just One of Those Days
TTITLE8=Standing in Your Doorway
TTITLE9=Fires of Spring
EXTD=
EXTT0=
EXTT1=
EXTT2=
EXTT3=
EXTT4=
EXTT5=
EXTT6=
EXTT7=
EXTT8=
EXTT9=
PLAYORDER=
